<svg xmlns="http://www.w3.org/2000/svg" viewBox="0 0 428.01 65.69"><defs><style>.cls-1,.cls-2{fill:#e94e1b;}.cls-2{stroke:#e6332a;}.cls-2,.cls-3{stroke-miterlimit:10;}.cls-3{fill:none;stroke:#1d1d1b;stroke-width:8px;}</style></defs><g id="Capa_2" data-name="Capa 2"><g id="Capa_1-2" data-name="Capa 1"><path class="cls-1" d="M147.67,16.94H188a15.47,15.47,0,0,1-1.62,2.16c-.77.88-1.6,1.76-2.48,2.62A27.54,27.54,0,0,1,181.36,24a3.72,3.72,0,0,1-1.83.94H157.76l-4.07,9.26,6.73-5.43h16.34l-10.09,8h-14.1l-5,11.5H134Z"/><path class="cls-1" d="M212.63,48.21H200.06l-1.47-6.66a5.64,5.64,0,0,1-1,1.35q-.89,1-2,2.13c-.75.75-1.47,1.43-2.18,2.06a6,6,0,0,1-1.54,1.12h-30c.08-.39.12-.53.12-.41v-.18L187.5,20.48a6.09,6.09,0,0,1,.85-.94,14.91,14.91,0,0,1,1.39-1.15c.51-.37,1-.71,1.5-1a2.56,2.56,0,0,1,1.21-.45h11.92a1.73,1.73,0,0,1,1.33.65,7.06,7.06,0,0,1,1,1.6,15.49,15.49,0,0,1,.77,2c.21.69.38,1.27.5,1.74Zm-28.44-8.49v.59h14.4l-2.48-13.87Z"/><path class="cls-1" d="M241.78,38a2.54,2.54,0,0,0-.21-1,.79.79,0,0,0-.8-.5H226.61a8.45,8.45,0,0,1-3.83-.85,9.86,9.86,0,0,1-2.92-2.19A9.53,9.53,0,0,1,218,30.51a8.27,8.27,0,0,1-.65-3.12,6.92,6.92,0,0,1,1-3.22,15.42,15.42,0,0,1,2.53-3.42A14.61,14.61,0,0,1,224.4,18a8.17,8.17,0,0,1,4-1.1h36.11a50.28,50.28,0,0,1-3.71,4,57.28,57.28,0,0,1-4.67,4H232.75a1.57,1.57,0,0,0-1.36.88,3.09,3.09,0,0,0-.53,1.42v.29s.09.13.27.27a4.56,4.56,0,0,0,.44.32,3.15,3.15,0,0,0,.83.45,3.27,3.27,0,0,0,.59.2h13.45A7.9,7.9,0,0,1,253.05,32a9.64,9.64,0,0,1,1.47,3,10.2,10.2,0,0,1,.47,3v.35a7.44,7.44,0,0,1-.85,3.28,13.17,13.17,0,0,1-2.24,3.21,12.5,12.5,0,0,1-3.19,2.45,7.65,7.65,0,0,1-3.69,1H208.91a17.79,17.79,0,0,1,1.45-1.88c.73-.87,1.5-1.74,2.33-2.63s1.59-1.67,2.3-2.36,1.14-1,1.3-1h24.07c.71,0,1.12-.18,1.24-.53a3.5,3.5,0,0,0,.18-1.12V38Z"/><path class="cls-1" d="M259.36,48.21l10.21-23.3h-13.4v-.06a6.06,6.06,0,0,1,1-1.3c.64-.71,1.41-1.49,2.3-2.36s1.79-1.7,2.71-2.51a15.52,15.52,0,0,1,2.33-1.74H300a14.7,14.7,0,0,1-1.62,2.16c-.77.88-1.6,1.76-2.48,2.62A27.54,27.54,0,0,1,293.34,24a3.68,3.68,0,0,1-1.83.94h-8.32L273,48.21Z"/><path class="cls-2" d="M328.17,39.89a9.28,9.28,0,0,1-.46,3,6.7,6.7,0,0,1-1.29,2.23,6.62,6.62,0,0,1-2,1.52,12,12,0,0,1-2.53.92,19,19,0,0,1-3,.47c-1.05.09-2.15.13-3.27.13H298.24V18h17c.87,0,1.73,0,2.59.11a16.51,16.51,0,0,1,2.5.41,10.27,10.27,0,0,1,2.22.82,6.34,6.34,0,0,1,1.78,1.39,6.21,6.21,0,0,1,1.18,2.06,8.48,8.48,0,0,1,.43,2.86,8.09,8.09,0,0,1-.36,2.55,4.81,4.81,0,0,1-1.1,1.84,5.61,5.61,0,0,1-1.88,1.27,12.37,12.37,0,0,1-2.68.78,13,13,0,0,1,3.76.75,7,7,0,0,1,2.55,1.58,6,6,0,0,1,1.45,2.36A9.88,9.88,0,0,1,328.17,39.89ZM323.4,25.74a8.93,8.93,0,0,0-.09-1.27,3.56,3.56,0,0,0-.39-1.22,4,4,0,0,0-.89-1.08,4.89,4.89,0,0,0-1.6-.86,12.12,12.12,0,0,0-2.49-.57,26,26,0,0,0-3.57-.21H301V31h13.38a20.83,20.83,0,0,0,4.75-.43,7.42,7.42,0,0,0,2.73-1.14,3.34,3.34,0,0,0,1.25-1.69A6.78,6.78,0,0,0,323.4,25.74Zm1.89,14.09a6.67,6.67,0,0,0-.59-2.92,4.86,4.86,0,0,0-1.83-2,9.12,9.12,0,0,0-3.16-1.13,25.44,25.44,0,0,0-4.59-.36H301V45.71h14.5a28.67,28.67,0,0,0,4.63-.32,8.34,8.34,0,0,0,3-1,4.08,4.08,0,0,0,1.65-1.83A6.68,6.68,0,0,0,325.29,39.83Z"/><path class="cls-2" d="M339.86,48.21V18h2.75V48.21Z"/><path class="cls-2" d="M382.52,48.21a12.26,12.26,0,0,0-1.21-4.45,13.08,13.08,0,0,0-2.54-3.52,15.73,15.73,0,0,0-3.55-2.65A23.59,23.59,0,0,0,371,35.76a27.68,27.68,0,0,0-4.64-1.07,33.23,33.23,0,0,0-4.73-.34h-4.69V48.21h-2.74V18h2.74V31.93h3.94a25.58,25.58,0,0,0,4.69-.43A24,24,0,0,0,370,30.25a21.37,21.37,0,0,0,4-2,16.6,16.6,0,0,0,3.24-2.75,14.24,14.24,0,0,0,2.31-3.41A11.94,11.94,0,0,0,380.63,18h2.82a14.17,14.17,0,0,1-1.07,4.34,15.79,15.79,0,0,1-4.82,6.24,22.69,22.69,0,0,1-3.08,2,24.74,24.74,0,0,1-3.05,1.4,23.34,23.34,0,0,1-2.71.85,28.8,28.8,0,0,1,3.29.73,23.12,23.12,0,0,1,3.54,1.32A22.39,22.39,0,0,1,379,37a15.39,15.39,0,0,1,3,2.83,15.72,15.72,0,0,1,2.24,3.71,15.13,15.13,0,0,1,1.12,4.72Z"/><path class="cls-2" d="M425,46.63c-1.23.38-2.37.71-3.43,1s-2.09.49-3.12.66-2.07.29-3.13.37-2.23.12-3.5.12a28.05,28.05,0,0,1-8-1.07,18,18,0,0,1-6.1-3.09,13.68,13.68,0,0,1-3.88-4.87,14.66,14.66,0,0,1-1.36-6.41A15,15,0,0,1,393.8,27,14.56,14.56,0,0,1,397.45,22a17,17,0,0,1,5.63-3.2,21.84,21.84,0,0,1,7.23-1.15,22.62,22.62,0,0,1,7.32,1.1,15.14,15.14,0,0,1,5.4,3.14,13.43,13.43,0,0,1,3.34,5,17.88,17.88,0,0,1,1.14,6.56v.68H395.3a13.48,13.48,0,0,0,1.41,5.08A10.94,10.94,0,0,0,400,43.05a15.75,15.75,0,0,0,5.27,2.43,28.45,28.45,0,0,0,7.32.84,27.55,27.55,0,0,0,3.6-.24,31,31,0,0,0,3.5-.65,25.72,25.72,0,0,0,3.05-.92A12.84,12.84,0,0,0,425,43.45Zm-.22-14.9a13.79,13.79,0,0,0-1-4.4,10.6,10.6,0,0,0-2.63-3.7,12.76,12.76,0,0,0-4.44-2.55,19.6,19.6,0,0,0-6.46-.95,18.53,18.53,0,0,0-6.2.95,14,14,0,0,0-4.51,2.54,11.83,11.83,0,0,0-2.9,3.69,13.48,13.48,0,0,0-1.34,4.42Z"/><circle class="cls-3" cx="24.94" cy="40.75" r="20.94"/><circle class="cls-3" cx="103.18" cy="40.75" r="20.94"/><path class="cls-3" d="M39.5,9.1,93.46,4C106,5.17,46.92,21.45,55.69,22.43c2.86.31,41.49,13.15,47.82,16a.79.79,0,0,1-.33,1.51H23.09"/></g></g></svg>